<?xml version="1.0" standalone="no"?>
<!DOCTYPE svg PUBLIC "-//W3C//DTD SVG 20010904//EN"
 "http://www.w3.org/TR/2001/REC-SVG-20010904/DTD/svg10.dtd">
<svg version="1.0" xmlns="http://www.w3.org/2000/svg"
 width="260.000000pt" height="260.000000pt" viewBox="0 0 260.000000 260.000000"
 preserveAspectRatio="xMidYMid meet">
<metadata>
Created by potrace 1.11, written by Peter Selinger 2001-2013
</metadata>
<g transform="translate(0.000000,260.000000) scale(0.100000,-0.100000)"
fill="#000000" stroke="none">
<path d="M0 1300 l0 -1300 1300 0 1300 0 0 1300 0 1300 -1300 0 -1300 0 0
-1300z m2265 490 l-110 -110 -130 130 -130 130 110 110 110 110 130 -130 130
-130 -110 -110z m-848 -468 l-427 -427 37 -38 38 -37 427 427 428 428 57 -58
58 -57 -559 -559 -560 -560 -230 -105 c-126 -58 -231 -104 -233 -102 -2 2 44
108 101 236 l105 234 558 558 558 558 35 -35 35 -35 -428 -428z"/>
<path d="M823 727 c-38 -39 -62 -79 -97 -156 -25 -57 -45 -105 -43 -106 1 -1
48 18 104 44 75 34 116 60 153 96 27 27 50 52 50 56 0 3 -19 9 -41 12 -46 6
-59 19 -59 57 -1 52 -14 52 -67 -3z"/>
</g>
</svg>
